<svg xmlns="http://www.w3.org/2000/svg" viewBox="0 0 240 240" fill="none">
  <defs>
    <radialGradient id="g" cx="50%" cy="58%" r="38%">
      <stop offset="0%" stop-color="#f3ff9a"/>
      <stop offset="40%" stop-color="#b6ff14"/>
      <stop offset="100%" stop-color="#1a2a00" stop-opacity="0"/>
    </radialGradient>
    <linearGradient id="bit" x1="0" y1="0" x2="1" y2="1">
      <stop offset="0%" stop-color="#f3f5f7"/>
      <stop offset="50%" stop-color="#8b9198"/>
      <stop offset="100%" stop-color="#2a2e33"/>
    </linearGradient>
  </defs>
  <circle cx="120" cy="138" r="70" fill="url(#g)"/>
  <path d="M36 196 86 168 128 206 70 228Z" fill="#15170f"/>
  <path d="M132 204 176 172 214 198 168 226Z" fill="#10120c"/>
  <path d="M108 28 132 28 124 92 116 92Z" fill="url(#bit)"/>
  <path d="M96 88c20 8 28 20 12 34 20 6 22 20 6 30 18 8 16 22-2 28" stroke="#dfe3e8" stroke-width="7" fill="none"/>
  <polygon points="120,112 146,150 120,188 94,150" fill="#c8ff3a"/>
  <polygon points="120,120 138,150 120,178 102,150" fill="#efff9c"/>
  <ellipse cx="120" cy="150" rx="46" ry="16" fill="none" stroke="#c8ff3a" stroke-opacity=".55"/>
  <ellipse cx="120" cy="150" rx="62" ry="22" fill="none" stroke="#c8ff3a" stroke-opacity=".22"/>
</svg>
